<svg xmlns="http://www.w3.org/2000/svg" width="430" height="430" fill="none" viewBox="0 0 430 430"><path stroke="#fff" stroke-linejoin="round" stroke-width="12" d="M229.868 83.444h-39.473V30h-46.053v53.444H95v52.623h32.895v157.866H95v52.623h49.342V400h46.053v-53.444h39.473V400h46.053v-54.055C314.865 341.09 345 307.874 345 267.622c0-23.942-10.662-45.395-27.497-59.87 9.034-12.836 14.339-28.486 14.339-45.374 0-35.585-23.552-65.67-55.921-75.523V30h-46.053zm23.027 105.245c14.534 0 26.316-11.78 26.316-26.311s-11.782-26.311-26.316-26.311h-72.369v52.622zm-72.369 105.244h85.527c14.533 0 26.315-11.78 26.315-26.311s-11.782-26.311-26.315-26.311h-85.527z" clip-rule="evenodd"/></svg>